# File created by Blade
# Date/Time:  Wed Jan 21 19:03:07 2015
# Frame Rate: 120.000 fps
#------------------------------------------------------
:FULLY-SPECIFIED
:DEGREES
1691
root -3.654619 29.540409 -7.414180 117.845287 -4.916038 6.930740
RightUpLeg -123.080238 -20.667478 31.756428
RightLeg -10.056460 -0.000000 0.000000
RightFoot 6.508239 5.904486 44.547159
RightToeBase 22.872231 -0.000000 -0.000000
LeftUpLeg -113.272649 9.466406 -23.521159
LeftLeg -8.355896 -0.000000 0.000000
LeftFoot 5.637672 -13.140972 -24.976741
LeftToeBase 5.016112 -0.000000 -0.000000
Spine 57.027419 -18.394044 4.865510
RightShoulder 11.218753 41.107723 -61.308185
RightArm 25.293449 29.826697 91.513492
RightForeArm 15.714131 -0.000000 108.503499
RightHand 25.351113 -0.000000 -65.289737
RightHandThumb1 -24.326973 -0.000000 -32.862282
LeftShoulder 11.548846 42.534257 5.940993
LeftArm 151.069814 -64.203287 -114.663938
LeftForeArm -7.250723 -0.000000 91.923645
LeftHand -43.323546 -0.000000 81.230062
LeftHandThumb1 -26.253704 0.000000 33.147579
Head 9.152309 3.897972 -47.426437
1692
root -3.647135 29.544632 -7.433582 117.858486 -4.854410 6.958549
RightUpLeg -123.142305 -20.680560 31.780749
RightLeg -9.987712 -0.000000 0.000000
RightFoot 6.464612 5.799110 44.624372
RightToeBase 22.921611 -0.000000 -0.000000
LeftUpLeg -113.330369 9.451037 -23.421701
LeftLeg -8.342362 -0.000000 0.000000
LeftFoot 5.657209 -13.090060 -24.954828
LeftToeBase 4.995904 -0.000000 -0.000000
Spine 56.851776 -18.440033 4.916253
RightShoulder 11.170628 41.454370 -61.276347
RightArm 25.266125 29.635659 91.891443
RightForeArm 15.553566 0.000000 108.042598
RightHand 25.547746 -0.000000 -65.597827
RightHandThumb1 -24.326973 -0.000000 -32.862282
LeftShoulder 11.353866 42.526472 5.755827
LeftArm 150.425655 -64.031655 -113.902849
LeftForeArm -7.178210 -0.000000 91.708423
LeftHand -43.082011 -0.000000 81.231444
LeftHandThumb1 -26.253704 0.000000 33.147579
Head 8.276526 3.631414 -47.717577
1693
root -3.638235 29.548250 -7.453493 117.878511 -4.786806 7.010330
RightUpLeg -123.215124 -20.713653 31.826699
RightLeg -9.933522 -0.000000 0.000000
RightFoot 6.439731 5.699158 44.688299
RightToeBase 22.933181 -0.000000 -0.000000
LeftUpLeg -113.396669 9.408883 -23.300001
LeftLeg -8.314281 -0.000000 0.000000
LeftFoot 5.678796 -12.993769 -24.987838
LeftToeBase 5.007217 -0.000000 -0.000000
Spine 56.680391 -18.509351 4.985654
RightShoulder 11.091188 41.830556 -61.286638
RightArm 25.143857 29.448715 92.218549
RightForeArm 15.458008 -0.000000 107.639632
RightHand 25.671987 -0.000000 -65.571489
RightHandThumb1 -24.326973 -0.000000 -32.862282
LeftShoulder 11.049999 42.471876 5.485103
LeftArm 149.602454 -63.841877 -112.893965
LeftForeArm -7.048436 -0.000000 91.471821
LeftHand -43.002627 -0.000000 81.143926
LeftHandThumb1 -26.253704 0.000000 33.147579
Head 7.323275 3.344987 -48.031455
1694
root -3.631695 29.550036 -7.473725 117.894249 -4.724726 7.037267
RightUpLeg -123.261145 -20.737502 31.839065
RightLeg -9.894585 -0.000000 0.000000
RightFoot 6.387471 5.582794 44.738691
RightToeBase 23.002012 -0.000000 -0.000000
LeftUpLeg -113.475237 9.394476 -23.209884
LeftLeg -8.268340 -0.000000 0.000000
LeftFoot 5.663509 -12.978844 -24.900666
LeftToeBase 4.983706 -0.000000 -0.000000
Spine 56.486562 -18.553843 4.986863
RightShoulder 11.158405 42.162741 -61.149208
RightArm 25.071831 29.305124 92.547800
RightForeArm 15.375395 -0.000000 107.248144
RightHand 25.752364 0.000000 -65.537939
RightHandThumb1 -24.326973 -0.000000 -32.862282
LeftShoulder 10.834337 42.522499 5.308876
LeftArm 148.992719 -63.654971 -112.126454
LeftForeArm -6.827577 0.000000 91.238182
LeftHand -42.967026 -0.000000 81.223136
LeftHandThumb1 -26.253704 0.000000 33.147579
Head 6.504748 3.103625 -48.248220
1695
root -3.624938 29.552232 -7.495034 117.945073 -4.667750 7.074030
RightUpLeg -123.336485 -20.765136 31.849543
RightLeg -9.869095 -0.000000 0.000000
RightFoot 6.356152 5.459716 44.840753
RightToeBase 23.005417 -0.000000 -0.000000
LeftUpLeg -113.582727 9.362626 -23.106673
LeftLeg -8.221474 -0.000000 0.000000
LeftFoot 5.655297 -12.937169 -24.873162
LeftToeBase 4.986956 -0.000000 -0.000000
Spine 56.225219 -18.608954 5.011911
RightShoulder 11.282700 42.481151 -61.020069
RightArm 24.959410 29.206411 92.849098
RightForeArm 15.297246 -0.000000 106.868113
RightHand 25.787233 -0.000000 -65.655695
RightHandThumb1 -24.326973 -0.000000 -32.862282
LeftShoulder 10.667873 42.545155 5.179821
LeftArm 148.276439 -63.469477 -111.318374
LeftForeArm -6.531482 0.000000 91.015018
LeftHand -42.984781 -0.000000 81.251411
LeftHandThumb1 -26.253704 0.000000 33.147579
Head 5.823458 3.074967 -48.324939
1696
root -3.618789 29.554303 -7.515284 117.996207 -4.617179 7.097932
RightUpLeg -123.402633 -20.786372 31.842154
RightLeg -9.843717 -0.000000 0.000000
RightFoot 6.313097 5.338380 44.885382
RightToeBase 23.040166 -0.000000 -0.000000
LeftUpLeg -113.692118 9.324847 -23.041824
LeftLeg -8.182011 -0.000000 0.000000
LeftFoot 5.659576 -12.898190 -24.876813
LeftToeBase 5.009257 -0.000000 -0.000000
Spine 55.995380 -18.633861 5.030095
RightShoulder 11.319926 42.764177 -60.952653
RightArm 24.852281 29.106545 93.174617
RightForeArm 15.242760 -0.000000 106.492534
RightHand 25.925326 -0.000000 -65.860588
RightHandThumb1 -24.326973 -0.000000 -32.862282
LeftShoulder 10.546506 42.674387 4.990918
LeftArm 148.083322 -63.372445 -110.838249
LeftForeArm -6.281894 -0.000000 90.710391
LeftHand -42.971274 -0.000000 81.342345
LeftHandThumb1 -26.253704 0.000000 33.147579
Head 4.982553 2.843085 -48.515818
1697
root -3.615088 29.556662 -7.533720 118.028936 -4.569881 7.119838
RightUpLeg -123.433096 -20.820230 31.815108
RightLeg -9.841987 -0.000000 0.000000
RightFoot 6.282289 5.197627 44.888332
RightToeBase 22.957118 -0.000000 -0.000000
LeftUpLeg -113.776314 9.306804 -22.963660
LeftLeg -8.146214 -0.000000 0.000000
LeftFoot 5.667958 -12.846262 -24.836584
LeftToeBase 4.956187 -0.000000 -0.000000
Spine 55.821116 -18.675918 4.996296
RightShoulder 11.229820 43.111472 -60.995731
RightArm 24.696485 28.967839 93.577602
RightForeArm 15.136914 -0.000000 106.064492
RightHand 26.016430 -0.000000 -65.977335
RightHandThumb1 -24.326973 -0.000000 -32.862282
LeftShoulder 10.226736 42.665457 4.772581
LeftArm 147.348298 -63.118621 -109.914461
LeftForeArm -5.935453 -0.000000 90.453339
LeftHand -42.937323 -0.000000 81.409580
LeftHandThumb1 -26.253704 0.000000 33.147579
Head 3.991265 2.569313 -48.593294
1698
root -3.612469 29.556658 -7.555390 118.106428 -4.527558 7.131555
RightUpLeg -123.493266 -20.848324 31.756656
RightLeg -9.841998 -0.000000 0.000000
RightFoot 6.202353 5.031942 44.978018
RightToeBase 23.025920 -0.000000 -0.000000
LeftUpLeg -113.916281 9.279864 -22.912928
LeftLeg -8.104171 -0.000000 0.000000
LeftFoot 5.666249 -12.812340 -24.835711
LeftToeBase 4.974629 -0.000000 -0.000000
Spine 55.534624 -18.709127 4.989980
RightShoulder 11.339282 43.459636 -60.992368
RightArm 24.426313 28.953339 93.925150
RightForeArm 15.020452 -0.000000 105.667312
RightHand 26.193633 -0.000000 -66.220740
RightHandThumb1 -24.326973 -0.000000 -32.862282
LeftShoulder 9.968514 42.598876 4.572600
LeftArm 146.383795 -62.887497 -108.827970
LeftForeArm -5.565557 0.000000 90.152346
LeftHand -42.831496 -0.000000 81.808500
LeftHandThumb1 -26.253704 0.000000 33.147579
Head 3.216840 2.415710 -48.864519
